<?xml version="1.0" standalone="no"?>
<!DOCTYPE svg PUBLIC "-//W3C//DTD SVG 20010904//EN"
 "http://www.w3.org/TR/2001/REC-SVG-20010904/DTD/svg10.dtd">
<svg version="1.0" xmlns="http://www.w3.org/2000/svg"
 width="1298.000000pt" height="1298.000000pt" viewBox="0 0 1298.000000 1298.000000"
 preserveAspectRatio="xMidYMid meet">
<metadata>
Created by potrace 1.11, written by Peter Selinger 2001-2013
</metadata>
<g transform="translate(0.000000,1298.000000) scale(0.100000,-0.100000)"
fill="#000000" stroke="none">
<path d="M2745 12479 c-485 -37 -923 -213 -1151 -462 -183 -200 -271 -438
-320 -868 -13 -114 -18 -306 -24 -909 -8 -803 -13 -894 -60 -1160 -132 -734
-466 -1135 -1075 -1290 l-110 -28 -3 -399 -2 -399 77 -18 c262 -62 476 -178
654 -355 217 -216 353 -500 433 -901 62 -314 81 -618 72 -1185 -13 -816 33
-1172 193 -1520 215 -464 638 -694 1351 -733 74 -4 1056 -6 2182 -4 l2047 4
-56 56 c-70 72 -136 163 -168 235 -96 209 -80 587 46 1110 23 93 39 170 37
172 -2 2 -64 -1 -138 -7 -365 -28 -806 21 -1200 134 -701 201 -1354 655 -1805
1253 -365 486 -583 1015 -671 1630 -21 150 -30 598 -15 763 74 809 410 1539
976 2121 514 528 1175 878 1900 1005 351 61 816 61 1181 0 580 -97 1138 -350
1614 -733 130 -104 387 -362 498 -499 364 -449 611 -985 721 -1562 58 -304 73
-732 37 -1030 -49 -413 -172 -824 -351 -1180 l-35 -69 58 -44 c32 -25 103 -78
157 -119 372 -277 767 -685 1186 -1224 209 -269 473 -647 629 -901 25 -40 48
-73 51 -73 9 0 32 100 53 225 33 201 40 325 35 710 -9 777 -4 1171 14 1299 29
206 48 297 88 426 165 523 522 868 1027 991 l92 22 0 401 0 401 -82 19 c-505
113 -841 425 -1012 939 -120 358 -162 804 -149 1587 12 735 -44 1193 -179
1465 -145 290 -400 482 -808 610 -156 49 -329 79 -550 95 -178 12 -7280 11
-7445 -1z"/>
<path d="M5434 9236 c-67 -30 -114 -120 -134 -258 -14 -91 -13 -3271 0 -3376
22 -170 87 -273 183 -287 88 -13 236 39 427 150 41 23 233 134 425 245 193
111 352 204 354 206 4 4 -47 50 -164 151 -91 78 -174 186 -224 294 -54 114
-73 201 -74 324 0 208 80 384 246 541 88 85 182 142 292 181 74 26 91 28 235
28 144 0 161 -2 243 -29 49 -16 123 -50 165 -75 42 -25 227 -163 411 -306 184
-143 338 -259 343 -257 23 7 380 219 438 260 258 184 254 343 -16 523 -38 26
-332 199 -654 384 -322 186 -918 530 -1325 765 -407 235 -772 444 -812 464
-156 78 -285 104 -359 72z"/>
<path d="M6878 7071 c-31 -10 -72 -28 -91 -40 -54 -33 -142 -133 -174 -198
-25 -51 -28 -69 -28 -153 0 -87 3 -101 32 -160 17 -36 49 -85 69 -109 31 -36
586 -533 1764 -1580 102 -90 199 -177 215 -193 l30 -29 -67 25 c-106 40 -331
103 -473 132 -99 20 -161 27 -260 28 -227 2 -282 -30 -373 -215 -140 -286
-305 -797 -387 -1200 -67 -328 -74 -603 -17 -714 40 -80 280 -290 547 -480
166 -118 584 -394 820 -541 375 -234 1141 -690 1217 -724 27 -13 -77 -80 1550
999 267 177 489 329 492 337 29 76 -167 487 -442 929 -526 843 -1189 1623
-1712 2013 -118 88 -174 132 -1430 1111 -916 713 -896 699 -952 727 -104 53
-231 66 -330 35z"/>
</g>
</svg>
